<svg xmlns="http://www.w3.org/2000/svg" viewBox="0 0 512 512" width="100%" height="100%">
  <defs>
    <linearGradient id="bgGrad" x1="0%" y1="0%" x2="100%" y2="100%">
      <stop offset="0%" stop-color="#4f46e5" />
      <stop offset="50%" stop-color="#8b5cf6" />
      <stop offset="100%" stop-color="#db2777" />
    </linearGradient>
    <linearGradient id="checkGrad" x1="0%" y1="0%" x2="100%" y2="100%">
      <stop offset="0%" stop-color="#ffffff" />
      <stop offset="100%" stop-color="#e0e7ff" />
    </linearGradient>
    <filter id="shadow" x="-10%" y="-10%" width="120%" height="120%">
      <feDropShadow dx="0" dy="8" stdDeviation="12" flood-color="#090514" flood-opacity="0.4" />
    </filter>
  </defs>

  <rect width="512" height="512" rx="128" fill="url(#bgGrad)" />

  <g filter="url(#shadow)">
    <rect x="112" y="100" width="288" height="340" rx="32" fill="#1e1b4b" fill-opacity="0.85" stroke="#ffffff" stroke-width="6" stroke-opacity="0.2"/>
    
    <path d="M200,100 L200,84 C200,76 206,70 214,70 L298,70 C306,70 312,76 312,84 L312,100 Z" fill="#ffffff" />
    
    <rect x="190" y="160" width="170" height="16" rx="8" fill="#ffffff" fill-opacity="0.9" />
    <circle cx="154" cy="168" r="14" fill="#34d399" />
    <path d="M148,168 L152,172 L160,164" fill="none" stroke="#ffffff" stroke-width="3" stroke-linecap="round" stroke-linejoin="round" />

    <rect x="190" y="220" width="140" height="16" rx="8" fill="#ffffff" fill-opacity="0.9" />
    <circle cx="154" cy="228" r="14" fill="#34d399" />
    <path d="M148,228 L152,232 L160,224" fill="none" stroke="#ffffff" stroke-width="3" stroke-linecap="round" stroke-linejoin="round" />

    <rect x="190" y="280" width="110" height="16" rx="8" fill="#ffffff" fill-opacity="0.4" />
    <circle cx="154" cy="288" r="14" fill="#6366f1" />
    
    <path d="M150,390 L210,340 L260,370 L340,290" fill="none" stroke="url(#checkGrad)" stroke-width="12" stroke-linecap="round" stroke-linejoin="round" />
    <path d="M300,290 L340,290 L340,330" fill="none" stroke="url(#checkGrad)" stroke-width="12" stroke-linecap="round" stroke-linejoin="round" />
  </g>
</svg>
